<svg width="230" height="77" viewBox="0 0 230 77" fill="none" xmlns="http://www.w3.org/2000/svg"><g clip-path="url(#a)"><path d="M88.0777 20.8379C84.7585 17.8516 79.9792 16.1649 73.8197 16.6294C70.5656 16.8755 67.4278 18.5125 66.1663 19.8425V0L53.4589 2.15403V60.0722H66.1777V38.6453C65.931 30.1011 69.2248 28.0438 74.1797 28.0438C79.0297 28.0438 81.7084 31.2321 81.7084 38.0701V60.0335H93.8971V36.0157C93.8999 28.9674 91.791 24.1782 88.0777 20.8379ZM32.6302 49.3377C36.097 49.1829 39.4559 48.1147 42.3501 46.2465L44.5072 44.864L50.0801 54.1824L48.2007 55.4434C43.0822 58.8745 37.0154 60.7067 30.8049 60.6971C25.9791 60.6938 21.2215 59.5853 16.9151 57.461C12.6087 55.3367 8.87368 52.2557 6.01076 48.4662C3.14784 44.6766 1.23697 40.2842 0.431946 35.6427C-0.373073 31.0012 -0.0497491 26.2402 1.37589 21.7428C2.80154 17.2454 5.28968 13.1374 8.64003 9.74931C11.9904 6.36126 16.1094 3.78784 20.6654 2.23619C25.2215 0.684537 30.0873 0.198005 34.8714 0.815752C39.6554 1.4335 44.224 3.13826 48.2092 5.79284L50.0801 7.04821L44.5072 16.3833L42.3501 15.0007C39.4559 13.1326 36.097 12.0643 32.6302 11.9095C29.1635 11.7548 25.7186 12.5192 22.6616 14.1218C19.6046 15.7243 17.05 18.1049 15.2692 21.0106C13.4883 23.9163 12.548 27.2383 12.548 30.6237C12.548 34.0089 13.4883 37.331 15.2692 40.2367C17.05 43.1423 19.6046 45.5229 22.6616 47.1255C25.7186 48.728 29.1635 49.4925 32.6302 49.3377ZM220.438 19.7015L220.371 20.0058L220.127 19.8066C217.292 17.5171 213.594 16.4055 208.823 16.4055C196.878 16.4055 187.161 26.1774 187.161 38.1891C187.161 50.2008 196.878 59.9728 208.823 59.9728C211.792 59.9836 214.728 59.3735 217.435 58.1837L217.84 58.0068L217.698 58.416C216.188 62.7573 212.136 65.5583 207.117 65.7159H206.504C203.624 65.7877 200.823 64.7872 198.672 62.9175L198.105 62.4419L191.178 70.1124L191.676 70.5935C196.084 74.8491 202.763 76.7846 207.102 76.7846C220.688 76.7846 230.55 67.1924 230.55 53.9752V16.5161H221.131L220.438 19.7015ZM209.812 48.5971C204.276 48.5971 199.775 43.9239 199.775 38.1809C199.775 32.4376 204.276 27.7646 209.812 27.7646C215.348 27.7646 219.852 32.4376 219.852 38.1809C219.852 43.9239 215.351 48.5971 209.812 48.5971ZM174.675 19.7016L174.603 20.0196L174.346 19.8122C171.511 17.5254 167.826 16.4139 163.05 16.4139C151.108 16.4139 141.393 26.1831 141.393 38.1891C141.393 50.1953 151.108 59.9645 163.05 59.9645C166.016 59.9748 168.95 59.3658 171.655 58.1782L172.081 57.9902L171.933 58.4188C170.431 62.7711 166.381 65.5749 161.363 65.7353H160.754C157.87 65.8085 155.067 64.8069 152.913 62.9342L152.361 62.4641L145.444 70.1236L145.937 70.5992C150.343 74.8519 157.017 76.7875 161.358 76.7875C174.938 76.7875 184.795 67.1981 184.795 53.9863V16.5244H175.369L174.675 19.7016ZM164.053 48.6053C158.512 48.6053 154.004 43.9296 154.004 38.1809C154.004 32.4322 158.512 27.7564 164.053 27.7564C169.595 27.7564 174.101 32.4322 174.101 38.1809C174.101 43.9296 169.595 48.6053 164.053 48.6053ZM96.3208 38.6065C96.3208 26.0806 105.7 16.2699 117.674 16.2699C129.599 16.2699 138.936 26.0806 138.936 38.6038C138.931 40.1999 138.82 41.7939 138.608 43.3764H109.099L109.227 43.7968C109.824 45.7121 111.092 47.3621 112.81 48.4587C114.486 49.5497 116.432 50.1818 118.445 50.2893C123 50.5326 126.436 49.2716 129.216 46.3158L136.759 51.3897C135.747 52.9244 129.843 60.9433 118.456 60.9433C106.242 60.9433 96.3208 50.9224 96.3208 38.6065ZM108.013 34.9456L107.977 35.305H128.216L128.196 34.9594C127.855 28.9065 122.671 25.641 117.969 25.641C115.533 25.665 113.195 26.5774 111.415 28.1987C109.464 29.959 108.251 32.3632 108.013 34.9456Z" fill="#EB8500" style="fill:#EB8500;fill:color(display-p3 0.9216 0.5216 0.0000);fill-opacity:1;"/></g><defs><clipPath id="a"><rect width="230" height="76.7874" fill="white" style="fill:white;fill-opacity:1;"/></clipPath></defs></svg>