<svg width="400" height="51" viewBox="0 0 400 51" fill="none" xmlns="http://www.w3.org/2000/svg"><g clip-path="url(#a)"><path fill-rule="evenodd" clip-rule="evenodd" d="M41.2213 0C30.2289 0 23.3587 5.49617 20.6106 16.4885C24.7328 10.9923 29.5419 8.93128 35.0381 10.3053C38.174 11.0885 40.4152 13.3649 42.8961 15.8824C46.9373 19.9847 51.6152 24.7328 61.8319 24.7328C72.8243 24.7328 79.6945 19.2366 82.4426 8.24426C78.3204 13.7404 73.5113 15.8015 68.0151 14.4274C64.8792 13.6442 62.638 11.3679 60.1571 8.85036C56.1159 4.74808 51.4381 0 41.2213 0ZM20.6106 24.7328C9.6183 24.7328 2.74809 30.2289 0 41.2213C4.12213 35.7251 8.93128 33.664 14.4274 35.0381C17.5633 35.8228 19.8045 38.0976 22.2854 40.6152C26.3267 44.7175 31.0045 49.4655 41.2213 49.4655C52.2136 49.4655 59.0838 43.9694 61.8319 32.977C57.7098 38.4732 52.9006 40.5343 47.4045 39.1602C44.2686 38.377 42.0274 36.1007 39.5465 33.5831C35.5053 29.4808 30.8274 24.7328 20.6106 24.7328Z" fill="#38BDF8" style="fill:#38BDF8;fill:color(display-p3 0.2196 0.7412 0.9725);fill-opacity:1;"/><path fill-rule="evenodd" clip-rule="evenodd" d="M123.658 20.8424H116.464V34.7661C116.464 38.479 118.901 38.421 123.658 38.189V43.8164C114.027 44.9767 110.198 42.308 110.198 34.7661V20.8424H104.861V14.8088H110.198V7.01646L116.464 5.15998V14.8088H123.658V20.8424ZM151.081 14.8088H157.346V43.8164H151.081V39.6393C148.876 42.7141 145.453 44.5706 140.928 44.5706C133.038 44.5706 126.482 37.8989 126.482 29.3127C126.482 20.6684 133.038 14.0546 140.928 14.0546C145.453 14.0546 148.876 15.9112 151.081 18.9279V14.8088ZM141.914 38.5951C147.136 38.5951 151.081 34.7081 151.081 29.3127C151.081 23.9172 147.136 20.0302 141.914 20.0302C136.693 20.0302 132.748 23.9172 132.748 29.3127C132.748 34.7081 136.693 38.5951 141.914 38.5951ZM167.789 10.4577C165.585 10.4577 163.786 8.60119 163.786 6.45463C163.788 5.39358 164.211 4.37656 164.96 3.62628C165.711 2.876 166.728 2.4536 167.789 2.45158C168.85 2.4536 169.867 2.876 170.618 3.62628C171.368 4.37656 171.791 5.39358 171.792 6.45463C171.792 8.60119 169.994 10.4577 167.789 10.4577ZM164.656 43.8164V14.8088H170.922V43.8164H164.656ZM178.174 43.8164V1.46533H184.44V43.8164H178.174ZM225.108 14.8088H231.722L222.613 43.8164H216.464L210.43 24.2653L204.339 43.8164H198.189L189.081 14.8088H195.694L201.322 34.8241L207.414 14.8088H213.389L219.423 34.8241L225.108 14.8088ZM239.496 10.4577C237.291 10.4577 235.493 8.60119 235.493 6.45463C235.494 5.39358 235.917 4.37656 236.667 3.62628C237.418 2.876 238.435 2.4536 239.496 2.45158C240.557 2.4536 241.574 2.876 242.325 3.62628C243.075 4.37656 243.497 5.39358 243.499 6.45463C243.499 8.60119 241.7 10.4577 239.496 10.4577ZM236.363 43.8164V14.8088H242.629V43.8164H236.363ZM265.139 14.0546C271.636 14.0546 276.277 18.4638 276.277 26.0058V43.8164H270.012V26.644C270.012 22.2348 267.459 19.9142 263.514 19.9142C259.395 19.9142 256.146 22.3508 256.146 28.2684V43.8164H249.881V14.8088H256.146V18.5218C258.061 15.5051 261.194 14.0546 265.139 14.0546ZM305.981 3.20578H312.247V43.8164H305.981V39.6393C303.777 42.7141 300.354 44.5706 295.829 44.5706C287.939 44.5706 281.383 37.8989 281.383 29.3127C281.383 20.6684 287.939 14.0546 295.829 14.0546C300.354 14.0546 303.777 15.9112 305.981 18.9279V3.20578ZM296.815 38.5951C302.036 38.5951 305.981 34.7081 305.981 29.3127C305.981 23.9172 302.036 20.0302 296.815 20.0302C291.593 20.0302 287.648 23.9172 287.648 29.3127C287.648 34.7081 291.593 38.5951 296.815 38.5951ZM333.248 44.5706C324.488 44.5706 317.932 37.8989 317.932 29.3127C317.932 20.6684 324.488 14.0546 333.248 14.0546C338.934 14.0546 343.865 17.0134 346.186 21.5386L340.79 24.6714C339.514 21.9447 336.671 20.2043 333.19 20.2043C328.085 20.2043 324.198 24.0913 324.198 29.3127C324.198 34.534 328.085 38.421 333.19 38.421C336.671 38.421 339.514 36.6226 340.906 33.9539L346.302 37.0287C343.865 41.6119 338.934 44.5706 333.248 44.5706ZM356.628 22.815C356.628 28.0943 372.235 24.9035 372.235 35.6363C372.235 41.4378 367.187 44.5706 360.922 44.5706C355.12 44.5706 350.943 41.96 349.086 37.7829L354.482 34.65C355.41 37.2607 357.731 38.8271 360.922 38.8271C363.706 38.8271 365.853 37.8989 365.853 35.5783C365.853 30.4149 350.247 33.3157 350.247 22.931C350.247 17.4776 354.946 14.0546 360.864 14.0546C365.621 14.0546 369.566 16.2592 371.596 20.0882L366.317 23.047C365.273 20.7844 363.242 19.7402 360.864 19.7402C358.601 19.7402 356.628 20.7264 356.628 22.815ZM383.373 22.815C383.373 28.0943 398.98 24.9035 398.98 35.6363C398.98 41.4378 393.932 44.5706 387.667 44.5706C381.865 44.5706 377.688 41.96 375.831 37.7829L381.227 34.65C382.155 37.2607 384.476 38.8271 387.667 38.8271C390.451 38.8271 392.598 37.8989 392.598 35.5783C392.598 30.4149 376.992 33.3157 376.992 22.931C376.992 17.4776 381.691 14.0546 387.609 14.0546C392.366 14.0546 396.311 16.2592 398.341 20.0882L393.062 23.047C392.018 20.7844 389.987 19.7402 387.609 19.7402C385.346 19.7402 383.373 20.7264 383.373 22.815Z" fill="white" style="fill:white;fill-opacity:1;"/></g><defs><clipPath id="a"><rect width="400" height="50.3817" fill="white" style="fill:white;fill-opacity:1;"/></clipPath></defs></svg>