<svg width="280" height="57" viewBox="0 0 280 57" fill="none" xmlns="http://www.w3.org/2000/svg"><g clip-path="url(#a)"><path d="M102.767 1.78369H113.38L131.425 34.4257L149.469 1.78369H159.852V55.4207H151.194V14.312L135.371 42.7779H127.248L111.426 14.312V55.4207H102.767V1.78369Z" fill="white" style="fill:white;fill-opacity:1;"/><path d="M187.781 56.3793C183.771 56.3793 180.246 55.4917 177.207 53.7166C174.167 51.9414 171.798 49.4831 170.1 46.3415C168.401 43.1998 167.552 39.5984 167.552 35.5375C167.552 31.4255 168.382 27.7858 170.043 24.6185C171.703 21.4518 174.008 18.9742 176.958 17.1857C179.908 15.3983 183.299 14.5044 187.13 14.5039C190.935 14.5039 194.211 15.4042 196.957 17.2048C199.702 19.0058 201.816 21.5281 203.297 24.7716C204.778 28.0156 205.519 31.8213 205.52 36.1887V38.5638H176.134C176.671 41.8337 177.992 44.407 180.1 46.2837C182.207 48.1612 184.869 49.0998 188.088 49.0996C190.667 49.0996 192.889 48.7165 194.754 47.9502C196.618 47.184 198.368 46.022 200.003 44.4641L204.6 50.0958C200.028 54.2851 194.421 56.3796 187.781 56.3793ZM194.103 24.5608C192.289 22.7093 189.913 21.7834 186.977 21.783C184.116 21.783 181.721 22.7282 179.793 24.6185C177.864 26.5086 176.645 29.05 176.134 32.2426H197.206C196.95 28.9732 195.916 26.4125 194.103 24.5608Z" fill="white" style="fill:white;fill-opacity:1;"/><path d="M216.018 22.5495H208.049V15.4616H216.018V3.73828H224.37V15.4616H236.476V22.5495H224.37V40.5177C224.37 43.5058 224.881 45.6385 225.902 46.9157C226.923 48.1932 228.673 48.8317 231.151 48.8312C232.249 48.8312 233.181 48.7866 233.948 48.6972C234.714 48.6082 235.557 48.4868 236.476 48.3332V55.3442C235.427 55.6477 234.358 55.8782 233.277 56.0341C232.041 56.2161 230.792 56.3057 229.542 56.3022C220.526 56.3022 216.018 51.3728 216.018 41.5139V22.5495Z" fill="white" style="fill:white;fill-opacity:1;"/><path d="M280 55.4212H271.801V49.8277C270.345 51.9224 268.494 53.5378 266.246 54.6741C263.998 55.8102 261.444 56.3786 258.584 56.3793C255.059 56.3793 251.937 55.4788 249.216 53.6779C246.496 51.8773 244.357 49.3999 242.799 46.2456C241.241 43.0912 240.462 39.4834 240.462 35.4225C240.462 31.336 241.254 27.7217 242.837 24.5798C244.421 21.4386 246.611 18.9739 249.408 17.1857C252.205 15.3983 255.416 14.5044 259.043 14.5039C261.776 14.5039 264.228 15.0339 266.399 16.0941C268.541 17.1301 270.396 18.6757 271.801 20.5955V15.4619H280V55.4212ZM271.648 29.4458C270.754 27.1725 269.342 25.3782 267.415 24.0626C265.486 22.7474 263.257 22.0898 260.729 22.0898C257.153 22.0898 254.305 23.2902 252.186 25.691C250.065 28.0919 249.005 31.3357 249.006 35.4225C249.006 39.5349 250.027 42.7915 252.071 45.1922C254.114 47.5931 256.885 48.7935 260.384 48.7933C262.964 48.7933 265.262 48.1292 267.28 46.8009C269.298 45.4735 270.754 43.6856 271.648 41.4373L271.648 29.4458Z" fill="white" style="fill:white;fill-opacity:1;"/><path d="M9.17383 37.2033C9.17383 40.4464 9.88566 42.9362 10.816 44.4426C12.0359 46.4156 13.8553 47.2514 15.7101 47.2514C18.1025 47.2514 20.2911 46.6578 24.5088 40.8244C27.8878 36.1489 31.8692 29.586 34.5481 25.4717L39.0848 18.5013C42.2363 13.6603 45.884 8.27889 50.0662 4.63122C53.4806 1.65402 57.1637 0 60.8704 0C67.0937 0 73.0215 3.60632 77.5582 10.37C82.5232 17.7776 84.9333 27.108 84.9333 36.7367C84.9333 42.4607 83.805 46.6666 81.8852 49.9894C80.0304 53.2029 76.4152 56.4135 70.3337 56.4135V47.2514C75.5409 47.2514 76.8405 42.4666 76.8405 36.9907C76.8405 29.1873 75.0211 20.5274 71.0131 14.3396C68.1688 9.95062 64.4827 7.26875 60.4274 7.26875C56.0413 7.26875 52.5118 10.5768 48.5451 16.4751C46.4363 19.6088 44.2713 23.4278 41.8405 27.7371L39.1645 32.4776C33.789 42.0088 32.4274 44.1797 29.7397 47.7624C25.0287 54.0358 21.0059 56.4135 15.7101 56.4135C9.42783 56.4135 5.45526 53.6932 2.99492 49.5936C0.986488 46.2531 0 41.87 0 36.8755L9.17383 37.2033Z" fill="#0081FB" style="fill:#0081FB;fill:color(display-p3 0.0000 0.5059 0.9843);fill-opacity:1;"/><path d="M7.2334 11.0168C11.4393 4.53372 17.5089 0 24.4705 0C28.5022 0 32.5102 1.19326 36.6954 4.61056C41.2735 8.34685 46.1528 14.4992 52.2402 24.6388L54.4228 28.2776C59.692 37.0557 62.6899 41.5717 64.4444 43.7012C66.7009 46.4362 68.2811 47.2514 70.3338 47.2514C75.541 47.2514 76.8406 42.4666 76.8406 36.9907L84.9334 36.7367C84.9334 42.4607 83.8051 46.6666 81.8853 49.9894C80.0304 53.2029 76.4153 56.4135 70.3338 56.4135C66.5532 56.4135 63.2038 55.5924 59.5001 52.0983C56.6528 49.4164 53.3241 44.6523 50.7633 40.3696L43.1461 27.6455C39.3241 21.2599 35.8182 16.4987 33.7891 14.3426C31.6064 12.024 28.8005 9.22403 24.3228 9.22403C20.6988 9.22403 17.6212 11.7671 15.0456 15.657L7.2334 11.0168Z" fill="url(#b)" style=""/><path d="M24.3228 9.22403C20.6987 9.22403 17.6211 11.7671 15.0456 15.657C11.4038 21.1536 9.17383 29.3409 9.17383 37.2033C9.17383 40.4464 9.88566 42.9362 10.816 44.4426L2.99492 49.5936C0.986488 46.2531 0 41.87 0 36.8755C0 27.7932 2.49282 18.327 7.23333 11.0168C11.4392 4.53372 17.5089 0 24.4704 0L24.3228 9.22403Z" fill="url(#c)" style=""/></g><defs><linearGradient id="b" x1="18.0169" y1="34.5569" x2="76.498" y2="37.5105" gradientUnits="userSpaceOnUse"><stop stop-color="#0064E1" style="stop-color:#0064E1;stop-color:color(display-p3 0.0000 0.3922 0.8824);stop-opacity:1;"/><stop offset="0.4" stop-color="#0064E1" style="stop-color:#0064E1;stop-color:color(display-p3 0.0000 0.3922 0.8824);stop-opacity:1;"/><stop offset="0.83" stop-color="#0073EE" style="stop-color:#0073EE;stop-color:color(display-p3 0.0000 0.4510 0.9333);stop-opacity:1;"/><stop offset="1" stop-color="#0082FB" style="stop-color:#0082FB;stop-color:color(display-p3 0.0000 0.5098 0.9843);stop-opacity:1;"/></linearGradient><linearGradient id="c" x1="13.2911" y1="41.0548" x2="13.2911" y2="19.4937" gradientUnits="userSpaceOnUse"><stop stop-color="#0082FB" style="stop-color:#0082FB;stop-color:color(display-p3 0.0000 0.5098 0.9843);stop-opacity:1;"/><stop offset="1" stop-color="#0064E0" style="stop-color:#0064E0;stop-color:color(display-p3 0.0000 0.3922 0.8784);stop-opacity:1;"/></linearGradient><clipPath id="a"><rect width="280" height="56.4134" fill="white" style="fill:white;fill-opacity:1;"/></clipPath></defs></svg>