<svg width="300" height="57" viewBox="0 0 300 57" fill="none" xmlns="http://www.w3.org/2000/svg"><g clip-path="url(#a)"><path d="M81.6943 54.3733V7.96712C81.6943 7.30003 82.1346 6.62932 83.0188 6.62932H87.2034C87.862 6.62932 88.5242 7.07526 88.5242 7.97075V54.5944C88.5242 55.2688 88.0839 55.9359 87.1998 55.9359H83.0152C82.3566 55.7147 81.6943 55.2651 81.6943 54.3733ZM97.552 12.2089V7.74597C97.552 7.07526 97.9959 6.40454 98.8764 6.40454H103.501C104.164 6.40454 104.826 6.8541 104.826 7.74597V12.2053C104.826 12.876 104.385 13.5467 103.501 13.5467H98.8764C97.9959 13.5467 97.552 13.1044 97.552 12.2089ZM97.7739 54.3733V21.356C97.7739 20.6853 98.4361 20.0146 99.0984 20.0146H103.061C103.723 20.0146 104.385 20.4642 104.385 21.356V54.5981C104.385 55.2688 103.945 55.9395 103.061 55.9395H99.0984C98.4361 55.7147 97.7739 55.2688 97.7739 54.3733ZM113.417 54.3733V21.356C113.417 20.6853 113.857 20.0146 114.738 20.0146H118.704C119.363 20.0146 120.025 20.4642 120.025 21.356V23.5857H120.243C121.568 21.802 123.769 20.2394 127.073 19.3439H127.295C132.36 18.6768 136.326 19.7934 138.968 22.6938C141.173 25.1483 142.494 28.2698 142.494 32.508V54.5944C142.494 55.2615 142.054 55.9359 141.169 55.9359H137.207C136.545 55.9359 135.882 55.4899 135.882 54.5944V34.2917C135.882 28.2662 133.459 25.1374 128.394 25.1374C125.97 25.1374 123.769 25.8081 122.226 27.3707C120.687 28.9297 120.025 30.9418 120.025 33.3926V54.5872C120.025 55.2579 119.584 55.9286 118.7 55.9286H114.734C113.857 55.7111 113.417 55.2688 113.417 54.3733ZM150.204 54.3733V7.96712C150.204 7.30003 150.645 6.62932 151.525 6.62932H155.491C156.15 6.62932 156.812 7.07526 156.812 7.97075V36.0791H157.031L170.909 20.6853C170.909 20.2394 171.349 20.0146 171.571 20.0146H176.636C177.739 20.0146 178.179 21.356 177.517 22.0231L167.386 33.6247C167.282 33.7253 167.198 33.8464 167.141 33.9807C167.084 34.1151 167.055 34.2597 167.055 34.4059C167.055 34.5521 167.084 34.6968 167.141 34.8311C167.198 34.9655 167.282 35.0866 167.386 35.1872L179.722 53.931C180.162 54.8192 179.722 55.9359 178.619 55.9359H174.216C173.808 55.9246 173.417 55.7665 173.114 55.4899L161.877 38.5336H161.659L157.031 43.6672C156.812 43.892 156.812 44.1132 156.812 44.5591V54.8192C156.812 55.4899 156.372 56.1606 155.488 56.1606H151.525C150.863 55.7147 150.204 55.2688 150.204 54.3733ZM187.873 44.5591V25.8154H183.906C183.244 25.8154 182.582 25.3694 182.582 24.4776V21.356C182.804 20.6853 183.244 20.0146 183.906 20.0146H188.094V12.6549C188.094 11.9842 188.531 11.3134 189.419 11.3134H193.16C193.822 11.3134 194.484 11.763 194.484 12.6549V20.0146H201.973C202.631 20.0146 203.293 20.4642 203.293 21.356V24.4776C203.293 25.1483 202.857 25.819 201.969 25.819H194.48V43.8884C194.48 45.8933 194.702 47.2347 195.365 48.1266C196.023 49.0184 197.122 49.468 198.887 49.468H200.426C201.088 49.468 201.751 49.9139 201.751 50.8058V54.5981C201.751 55.2688 201.31 55.9395 200.426 55.9395H198.447C194.702 55.9395 192.061 55.0476 190.296 53.2603C188.753 51.027 187.873 48.3514 187.873 44.5591ZM210.342 54.3733V21.356C210.342 20.6853 210.782 20.0146 211.441 20.0146H215.185C215.847 20.0146 216.509 20.4642 216.509 21.356V24.0316H216.728C217.39 22.6902 218.492 21.5772 219.81 20.6853C221.134 19.7934 222.455 19.5687 223.998 19.5687C224.657 19.5687 225.534 19.5687 226.199 19.7934C226.862 20.0146 227.084 20.6853 227.084 21.1349L226.421 25.1483C226.199 25.8154 225.541 26.2649 224.882 26.0401C224.442 26.0401 224.001 25.8154 223.339 25.8154C219.155 25.8154 216.953 28.7158 216.953 34.5165V54.1521C216.953 54.8192 216.513 55.4936 215.629 55.4936H211.441C210.782 55.7111 210.342 55.2688 210.342 54.3733ZM256.819 44.1132L259.683 46.3428C260.123 46.7888 260.349 47.4595 259.909 47.9018C258.584 49.9139 256.83 51.6977 254.843 53.2603C252.413 54.8192 249.334 55.7147 246.03 55.7147C241.184 55.7147 237.221 53.9273 234.135 50.581C231.05 47.2347 229.51 42.547 229.51 36.971C229.51 31.1702 231.05 26.7036 234.135 23.3573C237.221 20.011 240.965 18.2272 245.812 18.2272C250.44 18.2272 254.403 20.011 257.267 23.3573C260.13 26.7036 261.67 31.3914 261.67 37.1921V37.8665C261.67 38.5336 261.233 39.2043 260.349 39.2043H237.439C237.096 39.228 236.772 39.3769 236.529 39.6236C236.285 39.8702 236.138 40.1977 236.115 40.5457C236.337 43.0001 237.221 45.2334 238.542 47.0136C240.307 49.0184 242.508 50.1351 245.59 50.1351C247.129 50.1351 248.454 49.9139 249.556 49.468C250.655 49.0184 251.758 48.3514 252.42 47.6806C253.301 46.7888 253.744 46.1217 254.181 45.6721C254.407 45.451 254.625 45.005 254.847 44.7803C255.277 43.8884 256.161 43.6672 256.819 44.1132ZM236.115 33.6247H255.058C254.836 30.949 254.178 28.4946 252.635 26.7109C251.096 24.7023 248.665 23.8105 245.583 23.8105C242.719 23.8105 240.299 24.9235 238.753 26.932C236.995 28.9405 236.115 31.1738 236.115 33.6247ZM295.15 44.1132L298.013 46.3428C298.454 46.7888 298.676 47.4595 298.235 47.9018C296.911 49.9139 295.157 51.6977 293.167 53.2603C290.743 54.8192 287.661 55.7147 284.357 55.7147C279.51 55.7147 275.544 53.9273 272.466 50.581C269.38 47.2347 267.834 42.547 267.834 36.971C267.834 31.1702 269.373 26.7036 272.466 23.3573C275.544 20.011 279.292 18.2272 284.139 18.2272C288.767 18.2272 292.73 20.011 295.594 23.3573C298.457 26.7036 300 31.3914 300 37.1921V37.8665C300 38.5336 299.56 39.2043 298.676 39.2043H275.766C275.422 39.2272 275.098 39.3759 274.855 39.6227C274.611 39.8695 274.464 40.1975 274.442 40.5457C274.664 43.0001 275.541 45.2334 276.865 47.0136C278.63 49.0184 280.831 50.1351 283.91 50.1351C285.456 50.1351 286.777 49.9139 287.883 49.468C288.982 49.0184 290.085 48.3514 290.747 47.6806C291.62 46.7888 292.064 46.1217 292.504 45.6721C292.73 45.451 292.948 45.005 293.167 44.7803C293.607 43.8884 294.491 43.6672 295.15 44.1132ZM274.442 33.6247H293.392C293.167 30.949 292.512 28.4946 290.965 26.7109C289.426 24.7023 286.999 23.8105 283.917 23.8105C281.053 23.8105 278.633 24.9235 277.087 26.932C275.322 28.9405 274.442 31.1738 274.442 33.6247Z" fill="white" style="fill:white;fill-opacity:1;"/><path d="M24.29 1.51029C24.0388 1.0526 23.6714 0.671256 23.2258 0.405752C22.7802 0.140248 22.2726 0.000244141 21.7556 0.000244141C21.2386 0.000244141 20.731 0.140248 20.2854 0.405752C19.8398 0.671256 19.4724 1.0526 19.2213 1.51029L0.277997 36.3149C-0.602586 38.1023 0.718288 40.1108 2.70139 40.1108H15.4806V53.2713C15.4806 54.6127 16.5795 55.7294 17.9004 55.7294H25.3889C26.7134 55.7294 27.8123 54.6127 27.8123 53.2749V40.1108H24.29C23.601 40.1191 22.9321 39.8755 22.4061 39.4246C21.8801 38.9738 21.5322 38.346 21.4263 37.6563C21.4263 37.2104 21.4263 36.7645 21.6447 36.3149L32.2188 16.9041L24.29 1.51029Z" fill="#39E09B" style="fill:#39E09B;fill:color(display-p3 0.2235 0.8784 0.6078);fill-opacity:1;"/><path d="M41.0023 1.5102C41.2537 1.0534 41.6211 0.672879 42.0663 0.407981C42.5115 0.143084 43.0185 0.00341797 43.5349 0.00341797C44.0513 0.00341797 44.5583 0.143084 45.0035 0.407981C45.4487 0.672879 45.816 1.0534 46.0675 1.5102L65.0107 36.3148C65.8913 38.1022 64.5704 40.1107 62.5873 40.1107H50.0337V53.2712C50.0337 54.6126 48.9311 55.7293 47.6067 55.7293H39.6779C39.0369 55.7236 38.4237 55.4632 37.9705 55.0041C37.5172 54.545 37.2601 53.924 37.2545 53.2748V40.1107H40.7804C41.4694 40.119 42.1383 39.8754 42.6643 39.4245C43.1903 38.9737 43.5382 38.3459 43.6441 37.6563C43.6441 37.2103 43.6441 36.7644 43.4221 36.3148L32.8516 16.9076L41.0023 1.5102Z" fill="#28BF7B" style="fill:#28BF7B;fill:color(display-p3 0.1569 0.7490 0.4824);fill-opacity:1;"/></g><defs><clipPath id="a"><rect width="300" height="56.1608" fill="white" style="fill:white;fill-opacity:1;"/></clipPath></defs></svg>