<svg width="200" height="93" viewBox="0 0 200 93" fill="none" xmlns="http://www.w3.org/2000/svg"><g clip-path="url(#a)"><path d="M32.8378 16.4863C24.8649 16.4863 19.7297 18.7836 15.4054 24.189V18.2431H0V91.4865C0 91.4865 0.27027 91.6216 1.08108 91.7567C2.16216 92.027 7.83784 93.2432 12.027 89.7297C15.6757 86.6216 16.4865 82.9729 16.4865 78.9189V68.3783C20.9459 73.108 25.9459 75.1351 32.973 75.1351C48.1081 75.1351 59.7297 62.8378 59.7297 46.4864C59.7297 28.7836 48.5135 16.4863 32.8378 16.4863ZM29.8649 61.2161C21.3514 61.2161 14.5946 54.1891 14.5946 45.6756C14.5946 37.2972 22.5676 30.5404 29.8649 30.5404C38.5135 30.5404 45.1351 37.162 45.1351 45.8107C45.1351 54.4594 38.3784 61.2161 29.8649 61.2161Z" fill="white" style="fill:white;fill-opacity:1;"/><path d="M81.6217 44.7298C81.6217 51.0812 82.2974 58.7839 88.5136 67.1623C88.6488 67.2974 88.919 67.7028 88.919 67.7028C86.3515 72.0272 83.2434 75.0001 79.0542 75.0001C75.8109 75.0001 72.5677 73.2434 69.865 70.2704C67.0271 67.0271 65.6758 62.8379 65.6758 58.3785V0H81.4866L81.6217 44.7298Z" fill="white" style="fill:white;fill-opacity:1;"/><path d="M159.324 45.8113L140.676 18.2437H159.865L178.378 45.8113L159.865 73.2437H140.676L159.324 45.8113Z" fill="#EBAF00" style="fill:#EBAF00;fill:color(display-p3 0.9216 0.6863 0.0000);fill-opacity:1;"/><path d="M183.378 42.7032L200 18.2437H180.811L173.919 28.3788L183.378 42.7032Z" fill="white" style="fill:white;fill-opacity:1;"/><path d="M173.919 63.2433L177.162 67.7028C180.27 72.5676 184.324 75.0001 189.054 75.0001C194.054 74.8649 197.568 70.5406 198.919 68.919C198.919 68.919 196.486 66.7568 193.378 63.1082C189.189 58.2433 183.649 49.3243 183.514 48.9189L173.919 63.2433Z" fill="white" style="fill:white;fill-opacity:1;"/><path d="M126.487 57.4323C123.243 60.4053 121.081 62.027 116.622 62.027C108.649 62.027 104.054 56.3513 103.379 50.135H145.676C145.946 49.3242 146.081 48.2431 146.081 46.4864C146.081 29.3242 133.514 16.4863 117.027 16.4863C101.352 16.4863 88.5137 29.5945 88.5137 45.9458C88.5137 62.1621 101.352 74.9999 117.433 74.9999C128.649 74.9999 138.379 68.6486 143.649 57.4323H126.487ZM117.162 29.4593C124.189 29.4593 129.46 34.0539 130.676 40.135H103.919C105.27 33.7837 110.27 29.4593 117.162 29.4593Z" fill="white" style="fill:white;fill-opacity:1;"/></g><defs><clipPath id="a"><rect width="200" height="92.1796" fill="white" style="fill:white;fill-opacity:1;"/></clipPath></defs></svg>