<svg width="264" height="80" viewBox="0 0 264 80" fill="none" xmlns="http://www.w3.org/2000/svg"><g clip-path="url(#a)"><path d="M101.125 68.8989V10.6816H111.813V68.8989H101.125Z" fill="white" style="fill:white;fill-opacity:1;"/><path d="M203.643 29.3367H213.85V34.1631C216.019 30.3039 221.084 28.2114 225.423 28.2114C230.81 28.2114 235.148 30.5444 237.157 34.8048C240.289 29.9783 244.472 28.2114 249.696 28.2114C257.009 28.2114 264.001 32.6345 264.001 43.2474V68.899H253.633V45.4202C253.633 41.1575 251.542 37.9422 246.639 37.9422C242.057 37.9422 239.324 41.4807 239.324 45.7434V68.9015H228.718V45.4202C228.718 41.1575 226.549 37.9422 221.724 37.9422C217.062 37.9422 214.329 41.4005 214.329 45.7434V68.9015H203.643V29.3367Z" fill="white" style="fill:white;fill-opacity:1;"/><path d="M135.969 70.0453C123.928 70.0453 115.208 61.1143 115.208 49.1188C115.208 37.3145 123.899 28.1711 135.969 28.1711C148.097 28.1711 156.729 37.3994 156.729 49.1188C156.729 61.027 148.005 70.0453 135.969 70.0453ZM135.969 37.8547C129.758 37.8547 124.707 42.9075 124.707 49.1214C124.707 55.3348 129.758 60.3877 135.969 60.3877C142.179 60.3877 147.228 55.3348 147.228 49.1214C147.228 42.9075 142.179 37.8547 135.969 37.8547Z" fill="white" style="fill:white;fill-opacity:1;"/><path d="M179.561 70.0453C167.519 70.0453 158.8 61.1143 158.8 49.1188C158.8 37.3145 167.491 28.1711 179.561 28.1711C191.689 28.1711 200.321 37.3994 200.321 49.1188C200.321 61.027 191.592 70.0453 179.561 70.0453ZM179.561 37.7203C173.279 37.7203 168.169 42.8345 168.169 49.1163C168.169 55.3986 173.279 60.5128 179.561 60.5128C185.842 60.5128 190.952 55.3986 190.952 49.1163C190.95 42.8345 185.839 37.7203 179.561 37.7203Z" fill="white" style="fill:white;fill-opacity:1;"/><path d="M79.5824 35.366H56.3113L76.4652 23.7302L72.0393 16.0621L51.8855 27.6979L63.5187 7.54565L55.8505 3.11712L44.2173 23.2693V0H35.365V23.2715L23.7273 3.11712L16.0617 7.54343L27.6971 27.6956L7.54322 16.0621L3.11704 23.728L23.2709 35.3638H0V44.2164H23.2687L3.11704 55.8521L7.54322 63.5203L27.6949 51.8867L16.0594 72.0388L23.7273 76.4651L35.3628 56.3109V79.5823H44.2152V56.313L55.8484 76.4651L63.5161 72.0388L51.8808 51.8846L72.0347 63.5203L76.461 55.8521L56.3092 44.2185H79.5778V35.366H79.5824ZM39.7912 51.8308C33.1163 51.8308 27.706 46.4207 27.706 39.7455C27.706 33.0704 33.1163 27.66 39.7912 27.66C46.4661 27.66 51.8762 33.0704 51.8762 39.7455C51.8762 46.4207 46.4661 51.8308 39.7912 51.8308Z" fill="#625DF5" style="fill:#625DF5;fill:color(display-p3 0.3843 0.3647 0.9608);fill-opacity:1;"/></g><defs><clipPath id="a"><rect width="264" height="79.7456" fill="white" style="fill:white;fill-opacity:1;"/></clipPath></defs></svg>